<?xml version="1.0" encoding="iso-8859-1"?>
<!-- Generator: Adobe Illustrator 19.0.0, SVG Export Plug-In . SVG Version: 6.00 Build 0)  -->
<svg version="1.1" id="Capa_1" xmlns="http://www.w3.org/2000/svg" xmlns:xlink="http://www.w3.org/1999/xlink" x="0px" y="0px"
	 viewBox="0 0 512 512" style="enable-background:new 0 0 512 512;" xml:space="preserve">
<path style="fill:#303C42;" d="M501.333,0H10.667C4.771,0,0,4.771,0,10.667s4.771,10.667,10.667,10.667h10.667v469.333
	c0,11.76,9.563,21.333,21.333,21.333h81.208c6.833,0,13.313-3.313,17.313-8.865c2.628-3.667,3.867-8.051,3.874-12.469h221.878
	c0.007,4.419,1.247,8.803,3.874,12.469c4,5.552,10.479,8.865,17.313,8.865h81.208c11.771,0,21.333-9.573,21.333-21.333V21.333
	h10.667c5.896,0,10.667-4.771,10.667-10.667S507.229,0,501.333,0z"/>
<path style="fill:#F3F3F3;" d="M408.306,362.667h-84.264c-7.938,0-15.667-3.74-22.313-10.667
	c6.646-6.927,14.375-10.667,22.313-10.667h77.25c4.199,0,8.479,1.632,12.781,4.035L408.306,362.667z"/>
<path style="fill:#BDDDF4;" d="M420.979,324.647c-6.345-2.947-12.966-4.647-19.688-4.647h-77.25
	c-16.938,0-33.271,9.438-44.771,25.885c-2.583,3.667-2.583,8.563,0,12.229c1.191,1.704,2.633,3.001,3.923,4.552h-54.388
	c1.29-1.551,2.732-2.848,3.923-4.552c2.583-3.667,2.583-8.563,0-12.229C221.229,329.438,204.896,320,187.958,320h-77.25
	c-6.796,0-13.467,1.72-19.704,4.598l-5.046-15.139l70.801-198.271c0.711,0.792,1.23,1.214,2.137,2.302
	c4.792,5.781,12.063,14.51,25.938,14.51c13.896,0,21.167-8.729,25.979-14.51c4.521-5.448,6.125-6.823,9.542-6.823
	s5.021,1.375,9.542,6.823c4.813,5.781,12.083,14.51,25.958,14.51c13.875,0,21.146-8.729,25.958-14.5
	c4.313-5.167,6-6.833,9.604-6.833c3.604,0,5.313,1.667,9.625,6.833c4.813,5.771,12.104,14.5,26,14.5c13.896,0,21.188-8.729,26-14.5
	c0.927-1.111,1.461-1.547,2.186-2.349l70.814,198.307L420.979,324.647z"/>
<g>
	<path style="fill:#F3F3F3;" d="M97.91,345.319c4.208-2.352,8.51-3.986,12.798-3.986h77.25c7.938,0,15.667,3.74,22.313,10.667
		c-6.646,6.927-14.375,10.667-22.313,10.667h-84.266L97.91,345.319z"/>
	<path style="fill:#F3F3F3;" d="M336.667,99.833c-4.313,5.167-6.021,6.833-9.625,6.833c-3.604,0-5.313-1.667-9.625-6.833
		c-4.813-5.771-12.104-14.5-26-14.5c-13.896,0-21.167,8.729-25.979,14.51c-4.313,5.156-6,6.823-9.583,6.823
		c-3.417,0-5.021-1.375-9.542-6.823c-4.813-5.781-12.083-14.51-25.958-14.51s-21.146,8.729-25.938,14.5
		c-4.313,5.167-6,6.833-9.583,6.833c-3.417,0-5.021-1.375-9.542-6.823c-2.729-3.28-6.204-7.125-10.88-10.086l24.434-68.424h134.31
		l24.43,68.413C342.891,92.706,339.398,96.551,336.667,99.833z"/>
</g>
<path style="opacity:0.1;fill:#010101;enable-background:new    ;" d="M336.667,82.167c-4.313,5.167-6.021,6.833-9.625,6.833
	c-3.604,0-5.313-1.667-9.625-6.833c-4.813-5.771-12.104-14.5-26-14.5c-13.896,0-21.167,8.729-25.979,14.51
	c-4.313,5.156-6,6.823-9.583,6.823c-3.417,0-5.021-1.375-9.542-6.823c-4.813-5.781-12.083-14.51-25.958-14.51
	s-21.146,8.729-25.938,14.5c-4.313,5.167-6,6.833-9.583,6.833c-3.417,0-5.021-1.375-9.542-6.823c-1.643-1.975-3.688-4.1-5.97-6.169
	l-4.91,13.75c4.676,2.961,8.151,6.806,10.88,10.086c4.521,5.448,6.125,6.823,9.542,6.823c3.583,0,5.271-1.667,9.583-6.833
	c4.792-5.771,12.063-14.5,25.938-14.5s21.146,8.729,25.958,14.51c4.521,5.448,6.125,6.823,9.542,6.823
	c3.583,0,5.271-1.667,9.583-6.823c4.813-5.781,12.083-14.51,25.979-14.51c13.896,0,21.188,8.729,26,14.5
	c4.313,5.167,6.021,6.833,9.625,6.833c3.604,0,5.313-1.667,9.625-6.833c2.732-3.283,6.224-7.128,10.918-10.087l-4.914-13.763
	C340.372,78.055,338.315,80.186,336.667,82.167z"/>
<g>
	<polygon style="fill:#F3F3F3;" points="166.202,21.333 67.155,298.667 42.667,298.667 42.667,21.333 	"/>
	<polygon style="fill:#F3F3F3;" points="42.667,490.667 42.667,320 66.973,320 123.875,490.667 	"/>
</g>
<polygon style="fill:#D58246;" points="372.753,469.333 139.243,469.333 110.802,384 401.195,384 "/>
<path style="opacity:0.1;fill:#010101;enable-background:new    ;" d="M140.026,422.341c-3.882-11.647,4.788-23.674,17.065-23.674
	h239.216L401.195,384H110.802l28.441,85.333h16.445L140.026,422.341z"/>
<g>
	<polygon style="fill:#F3F3F3;" points="388.146,490.667 445.029,320 469.333,320 469.333,490.667 	"/>
	<polygon style="fill:#F3F3F3;" points="469.333,298.667 444.845,298.667 345.798,21.333 469.333,21.333 	"/>
</g>
<g>
	<polygon style="opacity:0.1;fill:#010101;enable-background:new    ;" points="469.333,298.667 458.667,298.667 448,21.333 
		469.333,21.333 	"/>
	<polygon style="opacity:0.1;fill:#010101;enable-background:new    ;" points="469.333,490.667 448,490.667 458.667,320 
		469.333,320 	"/>
	<polygon style="opacity:0.1;fill:#010101;enable-background:new    ;" points="373.333,21.333 444.845,298.667 451.667,298.667 
		395.333,21.333 	"/>
	<polygon style="opacity:0.1;fill:#010101;enable-background:new    ;" points="445.029,320 405.333,490.667 426.667,490.667 
		452.35,320 	"/>
	<polygon style="opacity:0.1;fill:#010101;enable-background:new    ;" points="42.667,21.333 64,21.333 53.333,298.667 
		42.667,298.667 	"/>
	<polygon style="opacity:0.1;fill:#010101;enable-background:new    ;" points="42.667,320 53.333,320 64,490.667 42.667,490.667 	
		"/>
	<polygon style="opacity:0.1;fill:#010101;enable-background:new    ;" points="138.667,21.333 67.155,298.667 60.333,298.667 
		116.667,21.333 	"/>
	<polygon style="opacity:0.1;fill:#010101;enable-background:new    ;" points="66.971,320 106.667,490.667 85.333,490.667 
		59.65,320 	"/>
</g>
<linearGradient id="SVGID_1_" gradientUnits="userSpaceOnUse" x1="-48.8832" y1="641.4202" x2="-21.2455" y2="628.5334" gradientTransform="matrix(21.3333 0 0 -21.3333 996.3334 13791.667)">
	<stop  offset="0" style="stop-color:#FFFFFF;stop-opacity:0.2"/>
	<stop  offset="1" style="stop-color:#FFFFFF;stop-opacity:0"/>
</linearGradient>
<path style="fill:url(#SVGID_1_);" d="M501.333,0H10.667C4.771,0,0,4.771,0,10.667s4.771,10.667,10.667,10.667h10.667v469.333
	c0,11.76,9.563,21.333,21.333,21.333h81.208c6.833,0,13.313-3.313,17.313-8.865c2.628-3.667,3.867-8.051,3.874-12.469h221.878
	c0.007,4.419,1.247,8.803,3.874,12.469c4,5.552,10.479,8.865,17.313,8.865h81.208c11.771,0,21.333-9.573,21.333-21.333V21.333
	h10.667c5.896,0,10.667-4.771,10.667-10.667S507.229,0,501.333,0z"/>
<g>
</g>
<g>
</g>
<g>
</g>
<g>
</g>
<g>
</g>
<g>
</g>
<g>
</g>
<g>
</g>
<g>
</g>
<g>
</g>
<g>
</g>
<g>
</g>
<g>
</g>
<g>
</g>
<g>
</g>
</svg>
