<?xml version="1.0" encoding="iso-8859-1"?>
<!-- Generator: Adobe Illustrator 19.0.0, SVG Export Plug-In . SVG Version: 6.00 Build 0)  -->
<svg version="1.1" id="Capa_1" xmlns="http://www.w3.org/2000/svg" xmlns:xlink="http://www.w3.org/1999/xlink" x="0px" y="0px"
	 viewBox="0 0 512 512" style="enable-background:new 0 0 512 512;" xml:space="preserve">
<path style="fill:#303C42;" d="M469.333,111.698c0-12.198-6.771-23.156-17.688-28.615l-24.979-12.49V42.667
	C426.667,19.135,407.521,0,384,0H85.333C61.813,0,42.667,19.135,42.667,42.667v426.667c0,23.531,19.146,42.667,42.667,42.667H384
	c23.521,0,42.667-19.135,42.667-42.667v-22.885l24.979-12.49c10.917-5.458,17.688-16.427,17.688-28.625v-80.302
	c0-4.095-1.042-8.03-2.629-11.815c1.542-3.78,2.629-7.767,2.629-12.029v-80.302c0-4.928-1.589-9.596-3.87-14.04
	c2.372-4.508,3.87-9.508,3.87-14.845V111.698z"/>
<path style="fill:#FF8F00;" d="M426.667,233.115L448,222.448v78.74c0,4.073-2.25,7.729-5.896,9.542l-15.438,7.714V233.115z"/>
<path style="fill:#8E24AA;" d="M442.104,102.167c3.646,1.813,5.896,5.469,5.896,9.531V192c0,4.073-2.25,7.729-5.896,9.542
	l-15.438,7.719V94.448L442.104,102.167z"/>
<path style="fill:#1E88E5;" d="M405.333,469.333c0,11.76-9.563,21.333-21.333,21.333H85.333c-11.771,0-21.333-9.573-21.333-21.333
	V42.667c0-11.76,9.563-21.333,21.333-21.333H384c11.771,0,21.333,9.573,21.333,21.333V469.333z"/>
<path style="fill:#7CB342;" d="M442.104,414.875l-15.438,7.719v-80.299L448,331.634v73.699
	C448,409.406,445.75,413.063,442.104,414.875z"/>
<path style="fill:#303C42;" d="M338.958,269.76c-14.813,0-29.354-2.323-43.063-6.844c-8.479-2.917-17.958-0.667-23.208,4.698
	l-26,19.635c-29.729-16.271-48.563-35.104-64.625-64.615l18.688-24.885c6.313-6.313,8.563-15.521,5.833-24.167
	c-4.563-13.865-6.875-28.396-6.875-43.208c0-13.073-10.646-23.708-23.708-23.708h-45.625c-13.063,0-23.708,10.635-23.708,23.708
	c0,128.083,104.208,232.292,232.292,232.292c13.063,0,23.708-10.635,23.708-23.708v-45.49
	C362.667,280.396,352.021,269.76,338.958,269.76z"/>
<path style="fill:#FAFAFA;" d="M341.333,338.958c0,1.292-1.083,2.375-2.375,2.375C222.646,341.333,128,246.698,128,130.375
	c0-1.292,1.083-2.375,2.375-2.375H176c1.292,0,2.375,1.083,2.375,2.375c0,17.083,2.667,33.865,7.917,49.75
	c0.208,0.667,0.271,1.646-1.604,3.656l-23.729,31.417c-2.458,3.25-2.833,7.625-0.979,11.26c19.75,38.833,43.75,62.854,82.875,82.885
	c3.583,1.885,8,1.51,11.292-0.979l32.521-24.698c0.604-0.594,1.521-0.823,2.396-0.542c16.021,5.292,32.792,7.969,49.896,7.969
	c1.292,0,2.375,1.083,2.375,2.375V338.958z"/>
<linearGradient id="SVGID_1_" gradientUnits="userSpaceOnUse" x1="-40.0807" y1="638.9033" x2="-26.4734" y2="625.301" gradientTransform="matrix(21.3333 0 0 -21.3333 996.3334 13791.667)">
	<stop  offset="0" style="stop-color:#000000;stop-opacity:0.1"/>
	<stop  offset="1" style="stop-color:#000000;stop-opacity:0"/>
</linearGradient>
<path style="fill:url(#SVGID_1_);" d="M246.688,287.25l26-19.635c5.25-5.365,14.729-7.615,23.208-4.698
	c13.708,4.521,28.25,6.844,43.063,6.844c6.418,0,12.216,2.613,16.492,6.776L193.21,114.296c3.96,4.238,6.499,9.837,6.499,16.079
	c0,14.813,2.313,29.344,6.875,43.208c2.729,8.646,0.479,17.854-5.833,24.167l-18.688,24.885
	C198.125,252.146,216.958,270.979,246.688,287.25z M190.952,112.038l-0.16,0.258c0.401,0.328,0.906,0.513,1.284,0.866
	L190.952,112.038z M355.887,276.973c4.164,4.275,6.78,10.073,6.78,16.496v45.49c0,13.073-10.646,23.708-23.708,23.708
	c-62.943,0-120.034-25.258-161.911-66.055l0.091,0.237l193.818,193.818H384c11.771,0,21.333-9.573,21.333-21.333V326.419
	L355.887,276.973z"/>
<linearGradient id="SVGID_2_" gradientUnits="userSpaceOnUse" x1="-27.5829" y1="629.3046" x2="-25.6229" y2="627.3546" gradientTransform="matrix(21.3333 0 0 -21.3333 996.3334 13791.667)">
	<stop  offset="0" style="stop-color:#000000;stop-opacity:0.1"/>
	<stop  offset="1" style="stop-color:#000000;stop-opacity:0"/>
</linearGradient>
<path style="fill:url(#SVGID_2_);" d="M448,405.333v-36.247l-21.333-21.333v74.841l15.438-7.719
	C445.75,413.063,448,409.406,448,405.333z"/>
<linearGradient id="SVGID_3_" gradientUnits="userSpaceOnUse" x1="-47.0956" y1="639.7963" x2="-23.8579" y2="628.9614" gradientTransform="matrix(21.3333 0 0 -21.3333 996.3334 13791.667)">
	<stop  offset="0" style="stop-color:#FFFFFF;stop-opacity:0.2"/>
	<stop  offset="1" style="stop-color:#FFFFFF;stop-opacity:0"/>
</linearGradient>
<path style="fill:url(#SVGID_3_);" d="M469.333,111.698c0-12.198-6.771-23.156-17.688-28.615l-24.979-12.49V42.667
	C426.667,19.135,407.521,0,384,0H85.333C61.813,0,42.667,19.135,42.667,42.667v426.667c0,23.531,19.146,42.667,42.667,42.667H384
	c23.521,0,42.667-19.135,42.667-42.667v-22.885l24.979-12.49c10.917-5.458,17.688-16.427,17.688-28.625v-80.302
	c0-4.095-1.042-8.03-2.629-11.815c1.542-3.78,2.629-7.767,2.629-12.029v-80.302c0-4.928-1.589-9.596-3.87-14.04
	c2.372-4.508,3.87-9.508,3.87-14.845V111.698z"/>
<g>
</g>
<g>
</g>
<g>
</g>
<g>
</g>
<g>
</g>
<g>
</g>
<g>
</g>
<g>
</g>
<g>
</g>
<g>
</g>
<g>
</g>
<g>
</g>
<g>
</g>
<g>
</g>
<g>
</g>
</svg>
